<svg width="149" height="134" viewBox="0 0 149 134" fill="none" xmlns="http://www.w3.org/2000/svg">
<path d="M3.35547 81.4912C3.35547 77.3621 5.78152 73.6369 9.67502 72.2621C20.4168 68.4691 44.0018 61.5935 73.8263 61.5935C103.651 61.5935 127.236 68.4691 137.978 72.2621C141.871 73.6369 144.297 77.3621 144.297 81.4912C144.297 88.8655 136.806 94.111 129.712 92.097C116.483 88.3413 95.7464 83.718 73.8263 83.718C51.9061 83.718 31.1694 88.3413 17.9402 92.097C10.8463 94.111 3.35547 88.8655 3.35547 81.4912Z" fill="#00D4E6"/>
<rect y="122.992" width="140.883" height="21.8611" rx="10.9306" transform="rotate(-60 0 122.992)" fill="#FF546D"/>
<rect width="139.558" height="21.8611" rx="10.9306" transform="matrix(-0.5 -0.866025 -0.866025 0.5 148.626 121.843)" fill="#FFAA50"/>
<path d="M3.35547 118.404C3.35547 114.275 5.78152 110.55 9.67502 109.175C20.4168 105.382 44.0018 98.5067 73.8263 98.5067C103.651 98.5067 127.236 105.382 137.978 109.175C141.871 110.55 144.297 114.275 144.297 118.404C144.297 125.779 136.806 131.024 129.712 129.01C116.483 125.255 95.7464 120.631 73.8263 120.631C51.9061 120.631 31.1694 125.255 17.9402 129.01C10.8463 131.024 3.35547 125.779 3.35547 118.404Z" fill="#6D86F5"/>
<path d="M124.602 124.457L100.312 82.3851C97.2939 77.1571 99.0851 70.472 104.313 67.4536C109.541 64.4352 116.226 66.2265 119.245 71.4545L143.535 113.526C146.553 118.754 144.762 125.439 139.534 128.458C134.306 131.476 127.621 129.685 124.602 124.457Z" fill="#FFAA50"/>
<path d="M64.6854 10.4485L40.3953 52.5203C37.3769 57.7483 39.1681 64.4333 44.3961 67.4517C49.6242 70.4701 56.3092 68.6788 59.3276 63.4508L83.6177 21.3791C86.6361 16.1511 84.8449 9.46604 79.6169 6.44764C74.3888 3.42925 67.7038 5.2205 64.6854 10.4485Z" fill="#FF546D"/>
<path d="M137.978 72.2621C128.602 68.9513 109.441 63.2918 84.8856 61.9064C78.7858 61.5622 73.8271 66.5462 73.8271 72.6557C73.8271 78.7653 78.7882 83.6884 84.8843 84.0926C102.588 85.2665 118.735 88.9805 129.713 92.097C136.807 94.111 144.298 88.8655 144.298 81.4912C144.298 77.3621 141.872 73.6369 137.978 72.2621Z" fill="#00D4E6"/>
</svg>
