<svg width="155" height="155" viewBox="0 0 155 155" fill="none" xmlns="http://www.w3.org/2000/svg">
<path fill-rule="evenodd" clip-rule="evenodd" d="M136.821 46.8602L149.313 59.6342L122.309 87.2486L151.395 116.992L138.903 129.766L97.3257 87.2486L136.821 46.8602Z" fill="#55C6FF"/>
<path fill-rule="evenodd" clip-rule="evenodd" d="M108.139 16.097L95.6852 3.60545L66.6865 32.6912L37.6878 3.60544L25.2336 16.097L66.6865 57.6744L108.139 16.097Z" fill="black"/>
<path fill-rule="evenodd" clip-rule="evenodd" d="M104.534 18.1789L92.3155 5.6873L65.9013 32.6912L37.4513 3.60544L25.2327 16.097L65.9013 57.6744L104.534 18.1789Z" fill="#55C6FF"/>
<path fill-rule="evenodd" clip-rule="evenodd" d="M147.858 62.2398C151.803 58.2953 151.803 51.9 147.858 47.9554L144.797 44.8945L110.092 44.5035L109.086 9.18359L107.046 7.14297C103.101 3.19845 96.7059 3.19845 92.7614 7.14297L92.7769 61.8188L147.858 62.2398Z" fill="#9A71FF"/>
<path d="M109.085 15.3044L109.086 9.18285L107.045 7.14223C103.1 3.19771 96.7051 3.19771 92.7606 7.14223L92.76 31.6294L109.085 15.3044Z" fill="#584DE2"/>
<path d="M139.694 45.9152L145.815 45.9146L147.856 47.9552C151.801 51.8998 151.801 58.2951 147.856 62.2396L123.369 62.2402L139.694 45.9152Z" fill="#584DE2"/>
<path fill-rule="evenodd" clip-rule="evenodd" d="M46.8603 136.82L59.6343 149.312L87.2487 122.308L116.992 151.393L129.766 138.902L87.2487 97.3245L46.8603 136.82Z" fill="#51E5A5"/>
<path fill-rule="evenodd" clip-rule="evenodd" d="M16.0984 108.138L3.60678 95.6837L32.6926 66.685L3.60678 37.6863L16.0984 25.2321L57.6758 66.685L16.0984 108.138Z" fill="black"/>
<path fill-rule="evenodd" clip-rule="evenodd" d="M18.1802 104.534L5.68863 92.3154L32.6926 65.9013L3.60678 37.4513L16.0984 25.2327L57.6758 65.9013L18.1802 104.534Z" fill="#51E5A5"/>
<path fill-rule="evenodd" clip-rule="evenodd" d="M62.2424 147.856C58.2978 151.8 51.9025 151.8 47.958 147.856L44.8971 144.795L44.5061 110.09L9.18615 109.084L7.14553 107.043C3.20101 103.099 3.20101 96.7033 7.14553 92.7588L61.8214 92.7744L62.2424 147.856Z" fill="#F4E12F"/>
<path d="M15.3044 109.084L9.18285 109.084L7.14223 107.044C3.19771 103.099 3.19771 96.7039 7.14223 92.7594L31.6294 92.7588L15.3044 109.084Z" fill="#24B57E"/>
<path d="M45.9152 139.693L45.9146 145.814L47.9552 147.855C51.8998 151.799 58.2951 151.799 62.2396 147.855L62.2402 123.368L45.9152 139.693Z" fill="#24B57E"/>
</svg>
